#!OML:ASF E:\Style6\Style6.ASF
:FULLY-SPECIFIED
:DEGREES
2727
root 0.295925 17.9428 -1.15631 37.6918 -11.7144 2.79522
lowerback 19.9814 -2.32907 8.14505
upperback 4.85512 -1.09466 4.61564
thorax -5.94333 -0.629227 0.630529
lowerneck 10.0243 -1.98374 3.55033
upperneck -28.0567 -4.07709 -6.185
head -10.8657 -1.6228 -2.33197
rclavicle 6.36111e-015 -1.51076e-014
rhumerus 26.3506 9.12062 -83.9695
rradius 25.5047
rwrist 41.7742
rhand -7.17323 3.47454
rfingers 7.12502
rthumb 18.7042 -25.6462
lclavicle 6.36111e-015 -1.51076e-014
lhumerus 19.5957 -16.0353 82.9018
lradius 35.3968
lwrist -8.12547
lhand -5.5694 22.0923
lfingers 7.12502
lthumb 20.2462 51.0571
rfemur -56.1118 8.59065 5.89796
rtibia 16.7088
rfoot 4.65508 -16.7504
rtoes -10.1623
lfemur -53.5014 -25.1327 2.05555
ltibia 17.8368
lfoot -22.8674 40.8153
ltoes 30.6871
2728
root 0.286622 17.9421 -1.14827 37.7835 -11.5817 2.74299
lowerback 19.9948 -2.3612 8.35042
upperback 4.8552 -1.09668 4.56364
thorax -5.9536 -0.632703 0.460617
lowerneck 10.0026 -1.85701 3.65936
upperneck -28.135 -3.97109 -6.53383
head -10.8938 -1.5422 -2.49398
rclavicle -1.59028e-015 -5.725e-014
rhumerus 26.3966 9.02209 -84.0176
rradius 25.3223
rwrist 41.8764
rhand -7.11901 3.50472
rfingers 7.12502
rthumb 18.7564 -25.611
lclavicle -1.59028e-015 -5.725e-014
lhumerus 19.7023 -16.1847 82.8059
lradius 35.4975
lwrist -8.27716
lhand -5.38645 22.0018
lfingers 7.12502
lthumb 20.4221 50.9478
rfemur -56.1528 8.54058 6.03407
rtibia 16.7402
rfoot 4.59485 -16.7615
rtoes -9.86085
lfemur -53.5695 -25.0284 2.09788
ltibia 17.8898
lfoot -22.5575 40.79
ltoes 30.2597
2729
root 0.276342 17.9408 -1.14146 37.8771 -11.4515 2.67439
lowerback 20.0094 -2.37227 8.50111
upperback 4.83749 -1.07719 4.56389
thorax -5.9812 -0.626051 0.37299
lowerneck 9.87082 -1.7396 3.68818
upperneck -28.0108 -3.88735 -6.89086
head -10.823 -1.46616 -2.63883
rclavicle 1.59028e-015 -4.29375e-014
rhumerus 26.3548 9.03719 -83.9593
rradius 25.2203
rwrist 41.9089
rhand -7.06078 3.43776
rfingers 7.12502
rthumb 18.8124 -25.6725
lclavicle 1.59028e-015 -4.29375e-014
lhumerus 19.7731 -16.2094 82.8717
lradius 35.5209
lwrist -8.5167
lhand -5.21117 21.9827
lfingers 7.12502
lthumb 20.5905 50.9106
rfemur -56.2201 8.54502 6.14524
rtibia 16.8047
rfoot 4.49557 -16.8172
rtoes -9.36688
lfemur -53.6454 -24.9507 2.20889
ltibia 17.909
lfoot -22.114 40.8865
ltoes 29.8211
2730
root 0.265794 17.9413 -1.13415 37.8857 -11.3326 2.66886
lowerback 20.0882 -2.38584 8.54828
upperback 4.8286 -1.07248 4.58775
thorax -6.03227 -0.625638 0.374312
lowerneck 9.76357 -1.60542 3.63176
upperneck -27.9029 -3.79095 -7.22631
head -10.7601 -1.37729 -2.76221
rclavicle -2.38542e-014 3.97569e-015
rhumerus 26.2985 9.12598 -83.8175
rradius 25.1545
rwrist 41.8442
rhand -6.9828 3.36589
rfingers 7.12502
rthumb 18.8874 -25.7371
lclavicle -2.38542e-014 3.97569e-015
lhumerus 19.8497 -16.2015 83.0054
lradius 35.4617
lwrist -8.7583
lhand -5.3834 21.8381
lfingers 7.12502
lthumb 20.425 50.7839
rfemur -56.2333 8.51612 6.2285
rtibia 16.9128
rfoot 4.39178 -16.8044
rtoes -9.39711
lfemur -53.6055 -24.8917 2.18601
ltibia 17.8894
lfoot -21.8922 40.8437
ltoes 29.562
2731
root 0.254314 17.9423 -1.12611 37.8775 -11.2216 2.70649
lowerback 20.1735 -2.46905 8.51266
upperback 4.82474 -1.17184 4.6262
thorax -6.08586 -0.673762 0.464338
lowerneck 9.69091 -1.39674 3.39809
upperneck -27.8401 -3.60377 -7.48689
head -10.7105 -1.23506 -2.83883
rclavicle -3.18055e-015 1.43125e-014
rhumerus 26.2412 9.35818 -83.7983
rradius 25.1035
rwrist 41.8631
rhand -6.8959 3.39063
rfingers 7.12502
rthumb 18.9709 -25.7042
lclavicle -3.18055e-015 1.43125e-014
lhumerus 19.833 -15.9741 83.135
lradius 35.4711
lwrist -8.9449
lhand -5.71229 21.6973
lfingers 7.12502
lthumb 20.1089 50.6766
rfemur -56.2359 8.44529 6.30651
rtibia 17.0447
rfoot 4.33511 -16.7646
rtoes -9.76895
lfemur -53.5371 -24.846 2.09657
ltibia 17.8528
lfoot -21.4157 40.8767
ltoes 28.9239
2732
root 0.242027 17.9409 -1.11967 37.9053 -11.1779 2.76166
lowerback 20.2071 -2.56705 8.37577
upperback 4.81858 -1.31701 4.66229
thorax -6.11542 -0.741897 0.618477
lowerneck 9.61746 -1.13973 3.09046
upperneck -27.8015 -3.35305 -7.71419
head -10.6642 -1.05912 -2.89813
rclavicle 2.38542e-014 1.27222e-014
rhumerus 26.1584 9.64414 -83.9149
rradius 25.0673
rwrist 42.0778
rhand -6.9072 3.41223
rfingers 7.12502
rthumb 18.9601 -25.6837
lclavicle 2.38542e-014 1.27222e-014
lhumerus 19.7664 -15.5312 83.2963
lradius 35.4711
lwrist -9.1246
lhand -5.50157 21.7559
lfingers 7.12502
lthumb 20.3114 50.7137
rfemur -56.3044 8.43445 6.27835
rtibia 17.1781
rfoot 4.21618 -16.8026
rtoes -9.46254
lfemur -53.5247 -24.8234 2.04653
ltibia 17.8161
lfoot -21.0933 40.9481
ltoes 28.3509
2733
root 0.230814 17.94 -1.11177 37.9237 -11.1498 2.82575
lowerback 20.2007 -2.58418 8.30162
upperback 4.84723 -1.3592 4.62862
thorax -6.08247 -0.75974 0.632878
lowerneck 9.3484 -0.962473 3.16271
upperneck -27.6506 -3.17776 -8.10588
head -10.5493 -0.945688 -3.07097
rclavicle -7.15625e-015 1.66979e-014
rhumerus 26.1155 9.75548 -83.8936
rradius 25.1269
rwrist 42.0991
rhand -6.91643 3.40763
rfingers 7.12502
rthumb 18.9512 -25.6892
lclavicle -7.15625e-015 1.66979e-014
lhumerus 19.8279 -15.4623 83.3505
lradius 35.4521
lwrist -9.0826
lhand -5.16026 21.8573
lfingers 7.12502
lthumb 20.6394 50.78
rfemur -56.3693 8.45018 6.2022
rtibia 17.3207
rfoot 4.06016 -16.849
rtoes -8.55196
lfemur -53.5271 -24.8833 2.06128
ltibia 17.7683
lfoot -21.1524 40.9957
ltoes 28.3222
2734
root 0.219564 17.9408 -1.1029 37.9771 -10.9689 2.79343
lowerback 20.1676 -2.59095 8.4294
upperback 4.85174 -1.34788 4.60263
thorax -6.06214 -0.755114 0.529154
lowerneck 9.05257 -0.843043 3.61241
upperneck -27.4448 -3.0712 -8.73699
head -10.4204 -0.878411 -3.38645
rclavicle -2.38542e-015 -3.18055e-014
rhumerus 26.1049 9.83577 -83.7373
rradius 25.1597
rwrist 41.9561
rhand -6.94713 3.39031
rfingers 7.12502
rthumb 18.9217 -25.7094
lclavicle -2.38542e-015 -3.18055e-014
lhumerus 19.8828 -15.5532 83.4199
lradius 35.4017
lwrist -9.09907
lhand -5.15844 21.9126
lfingers 7.12502
lthumb 20.6412 50.835
rfemur -56.4061 8.44835 6.28496
rtibia 17.439
rfoot 4.00195 -16.904
rtoes -8.44203
lfemur -53.5991 -24.9946 2.29859
ltibia 17.7358
lfoot -21.2521 41.0527
ltoes 28.369
2735
root 0.206696 17.9418 -1.09392 38.015 -10.8391 2.80906
lowerback 20.1524 -2.60798 8.43254
upperback 4.82845 -1.37038 4.57002
thorax -6.08168 -0.766446 0.497929
lowerneck 8.85118 -0.691838 3.96497
upperneck -27.2728 -2.91796 -9.2937
head -10.3156 -0.785227 -3.66344
rclavicle 1.19271e-014 1.27222e-014
rhumerus 26.0387 9.93521 -83.6923
rradius 25.1784
rwrist 41.9529
rhand -6.88023 3.3726
rfingers 7.12502
rthumb 18.986 -25.7208
lclavicle 1.19271e-014 1.27222e-014
lhumerus 19.9027 -15.5397 83.4609
lradius 35.3374
lwrist -9.24639
lhand -5.03796 22.0992
lfingers 7.12502
lthumb 20.7569 51.009
rfemur -56.4174 8.4981 6.25157
rtibia 17.4989
rfoot 3.85774 -17.0761
rtoes -7.97462
lfemur -53.7049 -25.1813 2.54548
ltibia 17.7406
lfoot -21.2948 41.2456
ltoes 28.25
